<?xml version="1.0" encoding="iso-8859-1"?>
<!-- Uploaded to: SVG Repo, www.svgrepo.com, Generator: SVG Repo Mixer Tools -->
<svg fill="#000000" height="800px" width="800px" version="1.1" id="Layer_1" xmlns="http://www.w3.org/2000/svg" xmlns:xlink="http://www.w3.org/1999/xlink" 
	 viewBox="0 0 512 512" xml:space="preserve">
<g>
	<g>
		<path d="M311.338,203.162l-1.306-1.42c-4.06-4.417-10.932-4.705-15.349-0.645c-4.416,4.06-4.706,10.932-0.645,15.348l1.307,1.421
			c2.142,2.331,5.066,3.511,7.999,3.511c2.627,0,5.263-0.948,7.349-2.866C315.109,214.451,315.398,207.579,311.338,203.162z"/>
	</g>
</g>
<g>
	<g>
		<path d="M501.137,345.116h-17.923V310.68c0.622,0.109,1.251,0.175,1.881,0.175c2.625,0,5.26-0.946,7.345-2.862
			c4.418-4.058,4.71-10.93,0.652-15.348l-12.74-13.869c-0.001-0.001-0.002-0.003-0.003-0.004l-67.001-72.91
			c-2.057-2.239-4.958-3.512-7.998-3.512s-5.941,1.274-7.998,3.512l-41.768,45.451l-0.486-0.528l-0.001-0.001l-20.22-22.003
			c-4.059-4.418-10.931-4.707-15.348-0.648c-4.418,4.059-4.708,10.931-0.648,15.348l17.361,18.893v82.744H292.01v-57.159
			c0-20.294-16.515-36.803-36.814-36.803h-3.856c-20.299,0-36.814,16.509-36.814,36.803v57.159h-44.233v-82.744l82.97-90.298
			l18.486,20.117c4.059,4.418,10.931,4.707,15.348,0.648c4.418-4.059,4.708-10.931,0.648-15.348l-26.484-28.821
			c-2.057-2.239-4.958-3.513-7.999-3.513c-3.04,0-5.941,1.274-7.998,3.513l-93.832,102.12c-0.002,0.002-0.003,0.004-0.005,0.005
			l-0.72,0.783l-42.011-45.719c-2.057-2.239-4.958-3.512-7.998-3.512s-5.941,1.274-7.998,3.512l-67.001,72.91
			c-0.001,0.001-0.002,0.003-0.003,0.004l-13.967,15.206c-4.058,4.418-3.766,11.29,0.652,15.348c2.086,1.916,4.72,2.862,7.345,2.862
			c1.049,0,2.098-0.158,3.109-0.458v33.384H10.863C4.863,345.117,0,349.98,0,355.979s4.863,10.863,10.863,10.863h22.833h47.09
			h39.822h38.823h65.958h55.758h65.958h38.334h39.812h47.1c0.596,0,1.179-0.061,1.749-0.153c0.57,0.092,1.151,0.153,1.749,0.153
			h25.288c5.999,0,10.863-4.863,10.863-10.863S507.137,345.116,501.137,345.116z M109.745,345.116H91.648v-37.704
			c0-4.222,3.44-7.658,7.669-7.658h2.759c4.229,0,7.669,3.436,7.669,7.658V345.116z M148.567,345.117H131.47v-37.705
			c0-16.203-13.186-29.383-29.394-29.383h-2.759c-16.208,0-29.394,13.181-29.394,29.383v37.704H44.559v-54.762l56.138-61.089
			l35.257,38.369l-4.095,4.457c-4.059,4.417-3.769,11.288,0.647,15.348c2.087,1.918,4.721,2.864,7.347,2.864
			c2.934,0,5.859-1.182,8-3.512l0.714-0.777V345.117z M270.284,345.116h-34.033v-57.159c0-8.313,6.769-15.077,15.088-15.077h3.856
			c8.32,0,15.088,6.764,15.088,15.077V345.116z M414.388,345.116h-18.086v-37.704c0-4.222,3.44-7.658,7.669-7.658h2.759
			c4.222,0,7.658,3.436,7.658,7.658V345.116z M436.114,345.116v-37.704c0-16.203-13.181-29.383-29.383-29.383h-2.759
			c-16.208,0-29.394,13.181-29.394,29.383v37.704h-16.609v-59.255c2.008,1.697,4.497,2.563,6.998,2.563
			c2.627,0,5.262-0.947,7.348-2.864c4.417-4.059,4.707-10.931,0.647-15.348l-2.619-2.849l35.009-38.097l56.138,61.089v54.762
			H436.114z"/>
	</g>
</g>
</svg>