<?xml version="1.0" encoding="iso-8859-1"?>
<!-- Uploaded to: SVG Repo, www.svgrepo.com, Generator: SVG Repo Mixer Tools -->
<svg version="1.1" id="Layer_1" xmlns="http://www.w3.org/2000/svg" xmlns:xlink="http://www.w3.org/1999/xlink" 
	 viewBox="0 0 516 516" xml:space="preserve">
<polygon style="fill:#2C3E50;" points="512,386.544 0,386.544 0,403.488 25.6,427.12 486.4,427.12 512,403.488 "/>
<path style="fill:#25B6D2;" d="M48,386.544v-277.6c0-6.64,5.408-12.064,12-12.064h392c6.608,0,12,5.424,12,12.064v277.6"/>
<path style="fill:#2C3E50;" d="M472,386.544h-16V108.96c0-2.208-1.824-4.08-4-4.08H60c-2.176,0-4,1.872-4,4.08v277.6H40v-277.6
	c0-11.072,8.976-20.08,20-20.08h392c11.024,0,20,8.992,20,20.08V386.544z"/>
<g style="opacity:0.25;">
	<polygon style="fill:#FFFFFF;" points="303.024,403.376 208.976,403.376 192.976,386.544 319.024,386.544 	"/>
</g>
<g style="opacity:0.1;">
	<rect y="386.48" style="fill:#FFFFFF;" width="516" height="16.832"/>
</g>
<g>
	
		<rect x="320.791" y="304.249" transform="matrix(0.7071 0.7071 -0.7071 0.7071 327.3987 -155.6081)" style="fill:#FFFFFF;" width="61.487" height="26.304"/>
	<polygon style="fill:#FFFFFF;" points="311.84,335.392 368.544,278.688 299.888,266.736 	"/>
	<path style="fill:#FFFFFF;" d="M122.272,152.816c6.736-1.088,16.768-1.92,27.888-1.92c13.744,0,23.376,2.064,29.968,7.28
		c5.504,4.4,8.512,10.864,8.512,19.392c0,11.808-8.368,19.92-16.336,22.816v0.4c6.448,2.608,10.032,8.8,12.352,17.328
		c2.896,10.432,5.776,22.528,7.568,26.112h-21.44c-1.52-2.608-3.712-10.176-6.464-21.584c-2.464-11.552-6.448-14.704-14.976-14.848
		h-6.336v36.416h-20.736V152.816z M143.008,192.672h8.256c10.432,0,16.624-5.216,16.624-13.328c0-8.528-5.76-12.784-15.392-12.928
		c-5.088,0-7.968,0.4-9.488,0.688V192.672z"/>
	<path style="fill:#FFFFFF;" d="M219.168,217.28c0.688,8.656,9.2,12.784,18.976,12.784c7.136,0,12.928-0.976,18.544-2.752
		l2.752,14.16c-6.88,2.752-15.248,4.128-24.336,4.128c-22.816,0-35.872-13.2-35.872-34.224c0-17.04,10.592-35.872,33.952-35.872
		c21.712,0,29.968,16.912,29.968,33.536c0,3.584-0.416,6.736-0.688,8.256h-43.296V217.28z M243.76,202.992
		c0-5.088-2.192-13.616-11.808-13.616c-8.8,0-12.368,7.968-12.928,13.616H243.76z"/>
	<path style="fill:#FFFFFF;" d="M275.664,198.448c0-8.384-0.288-15.536-0.56-21.456h18.16l0.96,9.216h0.416
		c2.752-4.272,9.616-10.72,20.752-10.72c13.744,0,24.048,9.056,24.048,28.864v39.856h-20.896V206.96
		c0-8.656-3.008-14.56-10.576-14.56c-5.776,0-9.216,3.984-10.576,7.824c-0.56,1.232-0.832,3.296-0.832,5.216v38.768h-20.896
		L275.664,198.448L275.664,198.448z"/>
	<path style="fill:#FFFFFF;" d="M378.768,157.76v19.232h14.992V192.4h-14.992v24.336c0,8.112,1.92,11.808,8.256,11.808
		c2.608,0,4.672-0.272,6.192-0.544l0.144,15.808c-2.752,1.088-7.696,1.776-13.616,1.776c-6.736,0-12.368-2.336-15.664-5.776
		c-3.84-3.984-5.776-10.432-5.776-19.92V192.4h-8.944v-15.408h8.928v-14.56L378.768,157.76z"/>
</g>
</svg>